HIERARCHY
ROOT Pelvis
{
	OFFSET 0.000000 0.000000 0.000000
	CHANNELS 6 Xposition Yposition Zposition Zrotation Yrotation Xrotation 
	JOINT Left_hip
	{
		OFFSET 0.068973 -0.091024 -0.007589
		CHANNELS 3 Zrotation Yrotation Xrotation
		JOINT Left_knee
		{
			OFFSET 0.036482 -0.391037 -0.003979
			CHANNELS 3 Zrotation Yrotation Xrotation
			JOINT Left_ankle
			{
				OFFSET -0.012239 -0.415469 -0.043440
				CHANNELS 3 Zrotation Yrotation Xrotation
				JOINT Left_foot
				{
					OFFSET 0.023806 -0.058558 0.118702
					CHANNELS 3 Zrotation Yrotation Xrotation
					End Site
					{
						OFFSET 0.000000 0.000000 0.000000
					}
				}
			}
		}
	}
	JOINT Right_hip
	{
		OFFSET -0.066552 -0.090468 -0.003847
		CHANNELS 3 Zrotation Yrotation Xrotation
		JOINT Right_knee
		{
			OFFSET -0.042435 -0.398340 -0.006400
			CHANNELS 3 Zrotation Yrotation Xrotation
			JOINT Right_ankle
			{
				OFFSET 0.014931 -0.415421 -0.041327
				CHANNELS 3 Zrotation Yrotation Xrotation
				JOINT Right_foot
				{
					OFFSET -0.021472 -0.049410 0.121889
					CHANNELS 3 Zrotation Yrotation Xrotation
					End Site
					{
						OFFSET 0.000000 0.000000 0.000000
					}
				}
			}
		}
	}
	JOINT Spine1
	{
		OFFSET -0.002904 0.105700 -0.022855
		CHANNELS 3 Zrotation Yrotation Xrotation
		JOINT Spine2
		{
			OFFSET 0.004179 0.132554 -0.002501
			CHANNELS 3 Zrotation Yrotation Xrotation
			JOINT Spine3
			{
				OFFSET 0.001987 0.049603 0.025988
				CHANNELS 3 Zrotation Yrotation Xrotation
				JOINT Neck
				{
					OFFSET -0.003935 0.211336 -0.045638
					CHANNELS 3 Zrotation Yrotation Xrotation
					JOINT Head
					{
						OFFSET 0.003906 0.065991 0.051018
						CHANNELS 3 Zrotation Yrotation Xrotation
						End Site
						{
							OFFSET 0.000000 0.000000 0.000000
						}
					}
				}
				JOINT Left_collar
				{
					OFFSET 0.072882 0.117751 -0.036270
					CHANNELS 3 Zrotation Yrotation Xrotation
					JOINT Left_shoulder
					{
						OFFSET 0.082118 0.032630 -0.005771
						CHANNELS 3 Zrotation Yrotation Xrotation
						JOINT Left_elbow
						{
							OFFSET 0.263305 -0.015144 -0.028095
							CHANNELS 3 Zrotation Yrotation Xrotation
							JOINT Left_wrist
							{
								OFFSET 0.250741 0.010115 -0.000759
								CHANNELS 3 Zrotation Yrotation Xrotation
								JOINT Left_palm
								{
									OFFSET 0.080683 -0.009989 -0.013613
									CHANNELS 3 Zrotation Yrotation Xrotation
									End Site
									{
										OFFSET 0.000000 0.000000 0.000000
									}
								}
							}
						}
					}
				}
				JOINT Right_collar
				{
					OFFSET -0.074811 0.116132 -0.040385
					CHANNELS 3 Zrotation Yrotation Xrotation
					JOINT Right_shoulder
					{
						OFFSET -0.085089 0.032943 -0.007484
						CHANNELS 3 Zrotation Yrotation Xrotation
						JOINT Right_elbow
						{
							OFFSET -0.254763 -0.014219 -0.020321
							CHANNELS 3 Zrotation Yrotation Xrotation
							JOINT Right_wrist
							{
								OFFSET -0.256597 0.009233 -0.005063
								CHANNELS 3 Zrotation Yrotation Xrotation
								JOINT Right_palm
								{
									OFFSET -0.080528 -0.007219 -0.010379
									CHANNELS 3 Zrotation Yrotation Xrotation
									End Site
									{
										OFFSET 0.000000 0.000000 0.000000
									}
								}
							}
						}
					}
				}
			}
		}
	}
}
MOTION
Frames: 11
Frame Time: 0.100000
0.163746 0.379718 -0.304971 170.689872 25.234301 -45.728143 19.633822 10.200938 -41.043806 -8.868100 11.752100 83.977669 -0.138656 9.683067 -7.615283 10.217095 11.625336 -18.034880 -11.342425 -8.064471 -39.031939 -1.800898 -12.849232 85.994780 -0.241589 -9.957839 -8.931863 -11.615487 -0.744538 -6.776961 -3.885881 1.859251 30.975198 9.690759 -8.256713 19.568209 5.311516 -1.336747 -8.555666 2.666281 0.042596 21.225560 10.844058 -17.381536 -2.538153 -6.707959 -21.153741 2.021741 2.325764 -36.064977 -11.313631 -171.912004 -71.551023 -162.199807 6.326146 -19.481389 8.736778 -24.682712 -11.639894 -15.140372 21.233394 22.672878 5.401685 38.428256 3.147929 10.514232 -172.520612 74.563792 -152.460705 -5.461082 17.628957 -27.033635 22.430888 7.239498 2.698289 
0.162536 0.379611 -0.304630 170.630126 25.824031 -45.586310 19.133917 10.009118 -41.470267 -9.352324 11.742640 84.045651 0.177171 9.967993 -7.772322 9.759005 11.503108 -17.488419 -12.148914 -9.028963 -38.996658 -1.860849 -13.156021 86.236518 -0.607725 -8.968789 -8.745642 -10.296144 -2.179147 -8.017556 -2.988583 1.754475 30.945995 9.588320 -7.534180 18.708438 5.578878 -1.121181 -7.474262 2.103537 4.698820 18.133708 9.316180 -13.180468 -7.359170 -6.285143 -22.230350 0.977743 0.531337 -36.284665 -10.747887 -175.672344 -73.800392 -155.112376 21.560198 -20.403721 10.139076 -21.979770 -9.584923 -12.765394 20.116434 21.973824 4.776063 39.411545 1.709163 9.802542 -178.055162 74.869758 -156.704931 -14.979207 16.370136 -26.006681 21.704863 6.787521 3.556270 
0.163398 0.380077 -0.304820 170.619119 26.612790 -45.906822 18.724329 9.830537 -41.404775 -9.503020 11.704084 84.012684 0.103110 9.614897 -7.644638 10.061913 12.136604 -17.249560 -12.666681 -9.161139 -38.661146 -2.327211 -13.199817 86.480562 -0.518289 -8.366134 -8.800058 -10.882958 -3.653798 -8.706461 -1.850873 1.671922 31.431872 9.152077 -7.124225 18.384178 5.949191 -0.969540 -7.154648 -0.101822 10.841408 15.664828 7.067447 -9.147907 -12.119560 -6.297799 -25.138213 -0.352525 -1.636441 -37.787277 -12.061369 147.918069 -80.921542 -119.120084 17.705117 -18.576911 13.935028 -21.171990 -9.679760 -13.147615 19.601693 23.045301 4.533947 41.112809 0.266139 9.100456 -173.920431 75.390365 -151.368851 -11.212921 16.403931 -22.610008 22.652125 7.585942 2.041278 
0.165538 0.379749 -0.304168 171.048887 26.853414 -45.633829 18.563924 10.145648 -41.349541 -9.455581 11.769720 83.796693 -0.752893 9.476703 -7.224031 11.273999 11.779772 -18.342496 -12.577325 -8.736347 -38.958587 -2.593769 -12.808838 86.550315 -0.103577 -8.866186 -8.846753 -12.251953 -2.875591 -9.452380 -1.584180 1.131131 32.470834 8.822471 -7.208163 17.454817 6.050123 -1.117036 -7.058423 -2.800329 14.177420 12.441844 5.341387 -6.901016 -14.845481 -5.660688 -25.699182 -0.732264 -1.015826 -37.938298 -13.155603 157.232746 -76.447952 -128.531522 18.739005 -19.650273 11.452698 -22.109059 -9.874976 -12.686361 19.795708 23.676484 4.706452 42.362791 1.004432 9.580395 -173.143416 74.971766 -149.781895 -11.779079 16.346414 -23.210781 23.068898 7.922846 2.452146 
0.167415 0.378817 -0.303256 171.368155 26.914001 -45.457960 18.479455 10.396039 -41.283529 -9.787150 11.637954 83.589106 -1.268344 9.818007 -6.920693 12.051947 11.273829 -18.660135 -12.431351 -8.644499 -39.130631 -2.658455 -12.499082 86.580196 0.452442 -8.977684 -8.553598 -13.139377 -3.175735 -10.869447 -1.602229 0.749134 33.425369 8.930797 -7.252443 16.800451 6.311606 -1.304080 -6.986193 -5.081265 16.656842 9.791267 4.073118 -6.534996 -17.878504 -3.624834 -26.916714 -1.674551 2.136475 -39.353448 -14.724618 172.424169 -77.409586 -138.269016 28.407062 -24.032737 15.147473 -19.937123 -8.619320 -11.450362 19.559390 24.033061 4.046864 43.996863 0.827304 9.910602 -174.824350 75.308005 -150.126229 -19.428352 16.754274 -24.426428 22.142022 7.156307 3.928382 
0.169744 0.378664 -0.303107 171.675045 26.400470 -45.371614 18.930802 11.138403 -41.092706 -10.065835 11.606630 83.521566 -0.650310 9.781846 -6.548498 11.011589 11.819550 -18.065617 -11.885784 -8.164086 -39.548212 -2.399869 -12.334791 86.610588 0.597384 -8.954300 -8.161757 -13.401692 -4.849768 -11.153330 -1.880447 0.472227 34.526399 9.162330 -7.576846 15.032128 6.854128 -1.670817 -6.394891 -8.636549 19.640801 7.712586 2.506950 -5.571882 -19.461737 -1.713135 -31.389618 -2.667184 4.050942 -41.055725 -16.675224 37.644365 -84.302068 -3.541590 26.391912 -22.042575 18.257849 -16.888911 -7.204968 -10.417116 19.232482 25.670255 2.926520 45.303517 -0.581222 9.714389 -178.661355 75.833070 -153.829345 -19.260547 16.232677 -23.709265 22.340850 6.065968 3.461198 
0.169032 0.377127 -0.302588 171.703265 26.066758 -44.794383 19.121065 11.267094 -41.573727 -9.993692 11.850498 83.618552 1.189038 9.346992 -6.466897 8.112219 13.376883 -16.612056 -11.972729 -8.154015 -40.111013 -2.042895 -12.822273 86.595306 0.444172 -8.358280 -8.091190 -13.060971 -7.412153 -10.383981 -2.187859 0.049371 34.753684 9.649604 -9.055549 12.508246 7.689060 -2.795374 -5.576994 -12.577894 22.122119 6.341540 1.330681 -3.104811 -20.699674 -0.729489 -38.202835 -2.514504 3.097632 -41.611185 -17.577290 13.180277 -61.133668 15.936016 14.543600 -15.047094 17.407901 -14.957124 -6.167780 -10.108650 18.234129 27.960916 1.650550 46.560511 -3.187720 8.838384 175.859281 73.436402 -159.979861 -11.349025 15.437979 -21.726937 24.113330 5.115858 1.010438 
0.167529 0.375964 -0.302289 171.948798 25.204015 -44.152572 19.409200 11.578883 -41.893312 -9.929764 11.988344 83.835879 2.618590 9.291128 -6.617980 5.969679 14.653118 -14.994383 -11.896069 -7.966404 -40.648438 -1.586163 -13.301814 86.492984 0.374790 -7.732923 -8.143333 -13.020706 -10.083070 -9.811483 -2.361501 -0.658745 35.264673 10.065180 -10.513934 9.952944 8.480735 -4.001757 -4.701114 -16.472620 24.422345 4.673436 0.249878 -0.265313 -22.836308 -0.563320 -44.358692 -2.159882 1.696959 -40.161050 -17.796747 8.065551 -37.924327 16.965962 4.488770 -9.605517 17.011151 -12.577460 -4.924651 -9.434212 17.196675 30.099690 0.073924 46.630756 -5.616669 7.564212 169.841497 70.766354 -167.354491 -4.488125 15.613985 -20.126901 25.332397 3.622757 -0.853200 
0.167773 0.375129 -0.301160 173.036834 23.745946 -42.887780 19.914214 12.529343 -41.864578 -9.413295 12.318050 83.813578 1.640975 9.567881 -6.914751 7.773869 14.333234 -15.310303 -11.391961 -6.910019 -41.931144 -1.451097 -13.231841 86.469133 1.189930 -7.540947 -8.297687 -15.300333 -10.463567 -9.885939 -2.362825 -1.789438 35.764616 9.771724 -10.926390 9.268084 8.346344 -4.595896 -5.344210 -17.763578 25.705068 2.327614 -0.555021 1.306379 -24.907702 -2.691618 -42.617736 -0.659057 -0.565635 -36.953393 -15.132247 4.952555 -37.125351 22.750667 -7.120909 -9.382935 21.015368 -13.411331 -5.913362 -11.314665 17.926597 28.924157 -0.321292 46.446162 -5.768905 7.549146 169.039631 69.343277 -167.263886 3.856999 17.539642 -17.612054 25.816749 3.631861 -1.485181 
0.169411 0.375199 -0.299651 173.760395 23.608537 -42.051312 19.601766 12.559788 -42.045738 -9.435152 12.192369 83.699867 1.503069 10.025224 -6.559712 7.064624 13.151235 -16.329522 -11.468145 -7.081285 -42.729722 -0.991522 -12.863027 86.663219 0.828341 -7.642455 -7.780394 -13.785637 -9.084377 -10.864312 -2.667827 -2.194834 36.830229 10.073850 -10.627228 8.357272 8.329576 -4.850427 -4.457408 -17.784128 24.030687 -0.990206 0.035997 1.685550 -28.139795 -3.844360 -39.453837 1.756603 -0.768071 -30.204896 -11.430316 1.109170 -50.521201 27.187916 11.422774 -17.931096 9.368562 -12.950646 -3.651830 -6.660611 18.033087 26.658716 -0.180103 46.059850 -7.456811 6.949959 167.378158 67.369269 -169.462814 -12.337447 17.796600 -24.909665 24.378117 1.152756 2.284370 
0.170525 0.376128 -0.300329 173.870515 24.337770 -41.482111 19.108964 12.295118 -42.873678 -9.455430 12.336802 83.735475 1.837615 9.559994 -6.364475 5.821091 13.533184 -15.346252 -12.458198 -8.276123 -43.146459 -1.216536 -13.466364 87.052031 0.481083 -6.493161 -7.448831 -12.737686 -10.386311 -11.250938 -1.711467 -2.222007 37.317922 9.838266 -9.909879 7.854675 8.461651 -4.804533 -3.777669 -17.506378 22.838907 -1.869280 0.819538 -0.097411 -31.825201 -5.183146 -40.144687 1.556893 -1.384008 -28.561698 -12.180620 6.997532 -45.192632 19.875814 21.548862 -21.230352 7.523247 -10.004358 -1.777504 -3.441428 17.209253 25.810499 -0.939299 46.717865 -12.354906 4.369791 169.440584 65.123754 -168.584322 -19.510643 18.967015 -27.136732 22.704365 -0.152751 3.583134 
